<?xml version="1.0" encoding="UTF-8" standalone="no"?>
<!-- Created with Inkscape (http://www.inkscape.org/) -->

<svg
   xmlns:dc="http://purl.org/dc/elements/1.1/"
   xmlns:cc="http://creativecommons.org/ns#"
   xmlns:rdf="http://www.w3.org/1999/02/22-rdf-syntax-ns#"
   xmlns:svg="http://www.w3.org/2000/svg"
   xmlns="http://www.w3.org/2000/svg"
   xmlns:sodipodi="http://sodipodi.sourceforge.net/DTD/sodipodi-0.dtd"
   xmlns:inkscape="http://www.inkscape.org/namespaces/inkscape"
   id="svg3390"
   version="1.1"
   inkscape:version="0.91 r13725"
   width="300"
   height="300"
   viewBox="0 0 300 300"
   sodipodi:docname="stickers-stitch.svg">
  <metadata
     id="metadata3396">
    <rdf:RDF>
      <cc:Work
         rdf:about="">
        <dc:format>image/svg+xml</dc:format>
        <dc:type
           rdf:resource="http://purl.org/dc/dcmitype/StillImage" />
        <dc:title />
      </cc:Work>
    </rdf:RDF>
  </metadata>
  <defs
     id="defs3394" />
  <sodipodi:namedview
     pagecolor="#ffffff"
     bordercolor="#666666"
     borderopacity="1"
     objecttolerance="10"
     gridtolerance="10"
     guidetolerance="10"
     inkscape:pageopacity="0"
     inkscape:pageshadow="2"
     inkscape:window-width="1366"
     inkscape:window-height="704"
     id="namedview3392"
     showgrid="false"
     inkscape:zoom="0.85333335"
     inkscape:cx="183.37661"
     inkscape:cy="198.42134"
     inkscape:window-x="0"
     inkscape:window-y="27"
     inkscape:window-maximized="1"
     inkscape:current-layer="svg3390" />
  <path
     style="fill:#000000"
     d="m 165.10813,298.56219 c -2.11228,-1.43533 -5.60271,-2.84606 -7.75651,-3.13494 -2.15381,-0.28889 -4.1566,-0.91453 -4.45065,-1.39031 -0.8519,-1.37841 -4.05753,-1.00265 -5.4166,0.63494 -0.68469,0.825 -2.35631,1.5 -3.71472,1.5 -1.3584,0 -3.61399,0.9 -5.01241,2 -4.35998,3.42956 -9.70681,1.87606 -7.19566,-2.09068 1.55951,-2.4635 0.99803,-3.90932 -1.51819,-3.90932 -1.34254,0 -2.73538,-0.47635 -3.0952,-1.05855 -0.83179,-1.34586 -5.62387,-0.32353 -11.21397,2.39234 -2.93413,1.42551 -4.57195,1.74411 -5.2875,1.02856 -1.51437,-1.51437 0.42522,-5.91496 3.49302,-7.92506 3.89117,-2.5496 3.07059,-3.34707 -2.81861,-2.73925 -3.79629,0.39181 -5.59577,0.1773 -6.15911,-0.7342 -1.05062,-1.69995 2.98213,-4.96384 6.13313,-4.96384 1.31407,0 2.38922,-0.45 2.38922,-1 0,-1.47906 -4.91208,-1.21528 -10.99207,0.59029 -2.945287,0.87465 -6.647327,1.33183 -8.226767,1.01594 -1.57943,-0.31588 -4.8737,-0.0389 -7.32058,0.61556 -5.72109,1.53016 -7.60617,0.17555 -5.0931,-3.65988 2.02809,-3.09526 2.00613,-4.16645 -0.0766,-3.73512 -2.06592,0.42786 -3.38342,-1.78541 -2.28479,-3.83822 0.93157,-1.74064 -0.19145,-8.26044 -1.76844,-10.26692 -3.9572,-5.03494 -0.42453,-29.83882 4.6546,-32.68124 2.07228,-1.1597 6.90042,1.31079 10.23189,5.23552 l 2.62416,3.09146 4.01974,-3.1837 c 2.210857,-1.75103 4.501647,-3.18369 5.090647,-3.18369 1.40138,0 3.14128,-3.30895 3.14128,-5.9741 0,-1.15807 -0.97126,-4.00015 -2.15835,-6.31574 -2.60514,-5.0817 -2.8944,-13.80772 -0.60364,-18.21016 0.85856,-1.65 3.48934,-5.18847 5.84619,-7.86327 l 4.28518,-4.86327 -4.93469,-4.34831 c -2.71408,-2.39157 -5.22113,-4.3656 -5.57123,-4.38673 -1.68812,-0.10189 -12.210047,-14.52617 -14.860877,-20.37246 -2.25156,-4.96572 -3.80804,-7.01984 -6.25037,-8.24877 -5.89607,-2.96678 -17.48237,-12.38759 -23.00458,-18.705 -15.22684,-17.41951 -22.74763,-34.01303 -22.74763,-50.189305 0,-13.837203 5.81462,-32.804443 11.50411,-37.526297 0.89066,-0.73918 5.07492,-1.828305 9.29837,-2.420278 10.24892,-1.436523 10.2639,-1.555715 1.66564,-13.250117 -1.42217,-1.934277 -1.43647,-2.486717 -0.12975,-5.013627 2.36532,-4.574038 12.20504,-13.214182 18.14657,-15.934305 7.4936,-3.43068303 10.48248,-2.94343103 13.01506,2.121734 1.66376,3.327516 1.99162,5.933391 1.95015,15.5 -0.0512,11.820475 -1.16759,20.183722 -4.67195,35 -1.59642,6.749642 -1.88816,10.418635 -1.41669,17.817176 0.7691,12.069071 3.65802,28.182819 5.0527,28.182819 0.59907,0 2.20415,-2.10164 3.56683,-4.670317 3.4949,-6.587957 11.040197,-14.511849 16.485127,-17.312276 4.41598,-2.271222 10.05251,-7.57848 12.35202,-11.630445 0.90819,-1.60033 1.37806,-1.698933 3.09326,-0.649135 1.43704,0.879546 2.77443,0.951906 4.62058,0.25 3.34054,-1.27007 9.46797,-1.278809 9.46797,-0.0135 0,1.734974 5.78637,4.025364 10.20034,4.037549 2.36481,0.0065 6.77466,0.719518 9.79966,1.584422 3.025,0.864905 7.65834,1.96074 10.2963,2.43519 2.63797,0.474449 6.33088,1.811055 8.20648,2.970236 5.28659,3.267291 12.50156,11.858982 15.74409,18.748283 2.688,5.711093 4.75313,7.942273 4.75313,5.135313 0,-0.61307 1.86068,-5.225568 4.13484,-10.249994 4.12402,-9.111426 4.13699,-9.178474 4.95753,-25.635319 0.90436,-18.138198 2.54075,-27.334583 6.34081,-35.635021 5.94144,-12.977813 8.74311,-14.085423 16.73241,-6.614979 13.50637,12.629227 21.85249,32.583042 21.81705,52.159963 -0.0231,12.74706 -2.02337,21.538743 -7.39654,32.50939 -5.0168,10.24304 -9.66498,15.97564 -12.34011,15.21909 -0.9603,-0.27158 -4.10849,-0.79356 -6.99599,-1.15995 -6.24835,-0.79286 -6.49122,-0.1429 -2.25,6.0215 1.65,2.39819 3,4.7535 3,5.23401 0,2.97829 -14.3722,12.26599 -18.98093,12.26599 -3.71025,0 -12.9791,11.21077 -18.56379,22.45309 -4.74736,9.5567 -5.02747,10.51581 -3.77136,12.91319 1.01079,1.92915 2.81838,2.9867 7.08649,4.146 12.83676,3.48673 13.73582,3.92729 19.29362,9.45441 8.36754,8.32135 12.19475,17.6139 14.62459,35.50883 0.78389,5.77304 0.93365,6.01021 4.42014,7 6.97853,1.98114 8.583,5.42185 6.41883,13.76492 -1.44739,5.57984 -5.45154,10.33369 -10.52759,12.49868 -1.925,0.82103 -5.01562,3.26171 -6.86805,5.42372 -1.89995,2.21748 -6.32762,5.42134 -10.15779,7.35018 -6.18905,3.11676 -8.38911,5.20636 -11.57232,10.99128 -0.60398,1.09764 -1.96104,2.44571 -3.01567,2.99571 -1.05463,0.55 -3.50969,2.22358 -5.45567,3.71906 -5.30342,4.07566 -10.21967,5.78094 -16.66625,5.78094 -4.6039,0 -6.59197,-0.53817 -9.64049,-2.60969 z"
     id="path3341"
     inkscape:connector-curvature="0" />
</svg>
